FFmpeg version SVN-r25716, Copyright (c) 2000-2010 the FFmpeg developers  built on Nov 10 2010 12:23:18 with gcc 4.1.2 20080704 (Red Hat 4.1.2-48)  configuration: --enable-libmp3lame --enable-shared --disable-mmx --arch=x86_64  libavutil     50.33. 0 / 50.33. 0  libavcore      0.12. 1 /  0.12. 1  libavcodec    52.94. 4 / 52.94. 4  libavformat   52.84. 0 / 52.84. 0  libavdevice   52. 2. 2 / 52. 2. 2  libavfilter    1.59. 0 /  1.59. 0  libswscale     0.12. 0 /  0.12. 0Input #0, avi, from '/RAID10/data/converted_video_files/19337.avi':  Metadata:    encoder         : CanonMVI01  Duration: 00:02:59.99, start: 0.000000, bitrate: 1913 kb/s    Stream #0.0: Video: mjpeg, yuvj422p, 320x240, 15 tbr, 15 tbn, 15 tbc    Stream #0.1: Audio: pcm_u8, 11024 Hz, 1 channels, u8, 88 kb/s[buffer @ 0x16f86d40] w:320 h:240 pixfmt:yuvj422p[ffsink @ 0x16f94010] auto-inserting filter 'auto-inserted scaler 0' between the filter 'src' and the filter 'out'[scale @ 0x16f94330] w:320 h:240 fmt:yuvj422p -> w:320 h:240 fmt:yuv420p flags:0x4Output #0, flv, to '/RAID10/data/converted_video_files/19337.flv':  Metadata:    encoder         : Lavf52.84.0    Stream #0.0: Video: flv, yuv420p, 320x240, q=2-31, 600 kb/s, 1k tbn, 24 tbc    Stream #0.1: Audio: libmp3lame, 22050 Hz, 1 channels, s16, 96 kb/sStream mapping:  Stream #0.0 -> #0.0  Stream #0.1 -> #0.1Press [q] to stop encodingWarning, using s16 intermediate sample format for resamplingframe=   88 fps=  0 q=2.0 size=     454kB time=5.83 bitrate= 637.5kbits/s    frame=  175 fps=163 q=2.0 size=     897kB time=11.62 bitrate= 632.0kbits/s    frame=  255 fps=164 q=2.0 size=    1328kB time=16.96 bitrate= 641.6kbits/s    frame=  321 fps=155 q=2.0 size=    1677kB time=21.38 bitrate= 642.7kbits/s    frame=  409 fps=159 q=1.6 size=    2158kB time=27.25 bitrate= 648.8kbits/s    frame=  487 fps=158 q=2.0 size=    2580kB time=32.42 bitrate= 652.1kbits/s    frame=  549 fps=154 q=2.0 size=    2914kB time=36.58 bitrate= 652.5kbits/s    frame=  602 fps=147 q=2.0 size=    3197kB time=40.08 bitrate= 653.4kbits/s    frame=  670 fps=145 q=2.0 size=    3537kB time=44.62 bitrate= 649.2kbits/s    frame=  733 fps=136 q=1.6 size=    3871kB time=48.83 bitrate= 649.4kbits/s    frame=  749 fps=130 q=2.0 size=    3953kB time=49.92 bitrate= 648.7kbits/s    frame=  790 fps=130 q=2.0 size=    4170kB time=52.62 bitrate= 649.1kbits/s    frame=  878 fps=133 q=2.0 size=    4660kB time=58.50 bitrate= 652.5kbits/s    frame=  956 fps=134 q=2.0 size=    5088kB time=63.71 bitrate= 654.3kbits/s    frame= 1038 fps=137 q=2.0 size=    5547kB time=69.17 bitrate= 657.0kbits/s    frame= 1125 fps=139 q=2.0 size=    6022kB time=74.95 bitrate= 658.2kbits/s    frame= 1200 fps=139 q=2.0 size=    6434kB time=79.94 bitrate= 659.3kbits/s    frame= 1242 fps=136 q=2.0 size=    6679kB time=82.75 bitrate= 661.2kbits/s    frame= 1316 fps=137 q=2.0 size=    7084kB time=87.71 bitrate= 661.7kbits/s    frame= 1395 fps=138 q=2.0 size=    7532kB time=92.94 bitrate= 663.8kbits/s    frame= 1459 fps=137 q=2.0 size=    7887kB time=97.25 bitrate= 664.4kbits/s    frame= 1509 fps=136 q=2.0 size=    8164kB time=100.58 bitrate= 664.9kbits/s    frame= 1587 fps=136 q=2.0 size=    8600kB time=105.75 bitrate= 666.2kbits/s    frame= 1632 fps=135 q=2.0 size=    8845kB time=108.75 bitrate= 666.3kbits/s    frame= 1719 fps=136 q=2.0 size=    9330kB time=114.58 bitrate= 667.0kbits/s    frame= 1791 fps=136 q=2.0 size=    9724kB time=119.38 bitrate= 667.3kbits/s    frame= 1837 fps=135 q=1.6 size=    9977kB time=122.42 bitrate= 667.7kbits/s    frame= 1922 fps=136 q=2.0 size=   10433kB time=128.08 bitrate= 667.3kbits/s    [mjpeg @ 0x16f80eb0] error count: 64[mjpeg @ 0x16f80eb0] error y=23 x=5frame= 1944 fps=133 q=2.0 Lsize=   10563kB time=129.58 bitrate= 667.8kbits/s    video:8931kB audio:1524kB global headers:0kB muxing overhead 1.037650%